<?xml version="1.0" encoding="utf-8"?>
<!-- Generator: Adobe Illustrator 26.0.2, SVG Export Plug-In . SVG Version: 6.00 Build 0)  -->
<svg version="1.1" id="Logo_x5F_White" xmlns="http://www.w3.org/2000/svg" xmlns:xlink="http://www.w3.org/1999/xlink" x="0px"
	 y="0px" viewBox="0 0 980.5 1087.7" style="enable-background:new 0 0 980.5 1087.7;" xml:space="preserve">
<style type="text/css">
	.st0{fill:#FFFFFF;}
</style>
<g id="Logo_x5F_White_00000001653360129446801560000012170229740761958791_">
	<g>
		<path class="st0" d="M196.5,663.7c-4.8,0-9.1-0.7-12.8-1.7c-24.7-6.6-40.6-30.4-45.3-51c-4.1-18-0.4-33.7,10.3-42.9
			c19.2-16.5,34.8-14,44.5-8.9c10.4,5.4,18.1,16.3,20.4,23.8c35.6-27.5,61.1-67.9,66.5-105.1C220.4,514,168.7,522,134,500.3
			c-28-17.5-42.1-52.5-37.7-93.8c2.9-27,13.8-54.3,30.8-77c19.1-25.4,45.4-44.7,76.2-55.8c30.2-11,57.6-15,81.3-12.1
			c21,2.6,37.9,10.5,48.9,23.1c14.3,16.2,16.7,37.9,6.5,58c-6.6,12.9-21.4,30.9-54.3,43.2c-30.3,11.3-68.3,14.9-112.9,10.6
			c-0.9-0.1-1.6-0.6-2-1.4s-0.3-1.7,0.2-2.5c5.2-7.8,20.6-25.5,22.6-26.9c0.4-0.3,0.8-0.4,1.3-0.5c79.9-4.9,100.1-25,99.6-35
			c-0.3-7.4-10.7-12.6-24-12.2c-68.9,2.3-102.5,38.7-110.9,71.9c-6.5,25.6,1.8,50.3,20.7,61.4c13.7,8,31.9,8.7,52.6,2
			c24.8-8.1,52.2-26.2,81.5-53.9l0,0c3.9-3.7,10.2-4.3,16.9-1.7c4.8,1.8,9.7,5.4,9.9,9.1c1,13.3-3.3,50.6-15.9,91.9
			c-11.4,37.7-33.7,91.8-74.6,136.1C230,657.4,211.1,663.7,196.5,663.7z M178,560.4c-8.4,0-17.2,3.9-26.1,11.5
			c-9.2,7.9-12.4,21.8-8.7,38c4.4,19.2,19,41.3,41.7,47.3c20.1,5.4,41.6-3.6,62.3-25.8c40.3-43.5,62.2-97,73.5-134.1
			c13.5-44.6,16.4-80,15.7-90.1c-0.2-0.9-3.1-3.7-8-5.3c-2.1-0.6-7.2-1.8-10.3,1.1l0,0c-79.3,75.1-124.4,61.8-140.1,52.5
			c-20.8-12.2-30.1-39.1-23-66.9c5-19.6,17.5-37.7,35.3-50.8c20.7-15.2,48.5-23.9,80.2-24.9c16.4-0.6,28.7,6.6,29.2,16.9
			c0.7,15.5-25.9,35.4-103.5,40.2c-2.5,2.5-12.6,13.9-18.5,21.8c92.9,8,142.5-21.2,158-51.5c9.3-18.2,7.1-37.8-5.8-52.4
			c-10.2-11.6-26.1-19-45.8-21.4c-23-2.8-49.6,1.2-79,11.9c-69.2,25.1-99.1,85-103.7,128.6c-4.2,39.3,9.1,72.6,35.4,89
			c33.9,21.2,85.4,12.2,145.1-25.1c0.8-0.5,1.8-0.5,2.6,0c0.8,0.5,1.3,1.4,1.2,2.4c-3.9,41-32.3,86.7-72.4,116.3
			c-0.8,0.6-1.9,0.7-2.7,0.2c-0.9-0.5-1.3-1.4-1.2-2.4c0.4-3.8-6.5-17.4-18.4-23.6C186.7,561.5,182.4,560.4,178,560.4z M316.3,401.2
			L316.3,401.2L316.3,401.2z"/>
	</g>
	<g>
		<path class="st0" d="M309.8,746.5c-10.4,0-20.6-2.2-29.1-6.9c-21.1-11.5-35.6-30.4-41-53c-0.2-0.7,0-1.4,0.3-2
			c0.4-0.6,1-1,1.7-1.1c38.3-6.7,70.5-34.1,95.7-81.5c21.2-39.7,31.9-83.7,36.4-106.4c1.5-7.5,3.2-15.1,4.9-23.1
			c7-31.7,14.2-64.5,10.2-94.6c-0.3-1.9-0.5-3.5-1.3-4.6c-1.5-2-4.1-1.8-8.3-1.3c-3.8,0.4-8.2,0.9-11.7-1.5
			c-2.6-1.8-4.5-5.1-4.9-8.8c-0.3-3.1,0.4-5.8,2.2-7.7c1.7-1.8,15.3-13.8,27.4-24.1c26.2-22.3,27.8-22,29.4-21.5
			c0.4,0.1,0.7,0.3,1,0.5c1.2,1,1.5,2.2,3.8,17.6c4.5,29.9,14.8,98.4,39.2,157.2c16.7-76.2,40-175.6,96.1-194.6l0.8,2.4l-0.8-2.4
			c13.9-4.7,27.3-3,36.9,4.7c8.5,6.8,12.6,17.6,11.3,29.5c-0.9,7.7-4.5,14-10.8,18.7c-9.1,6.7-22.1,8.5-29.8,7.7
			c-12.1,37.4-20.9,111.6-14,147.6c1.3,7,4.2,10.8,8.5,11.3c8.3,1,21.1-9.8,25.4-19.1c1.1-2.3,2.8-2.1,3.3-2
			c2.4,0.5,2.9,4.3,2.9,7.3c2.3,41.2-9.9,73.6-33.3,89c-13.7,9-29.6,10.4-42.6,3.9c-20.9-10.6-21.4-44.6-18.4-73.4
			c-20.1,61.3-30.8,68.8-37.3,68.5c-2.7-0.1-11.1-0.5-27-39.3c-5.6-13.6-10.4-28-13.5-38.9c-4.4,33.7-11.1,78.5-21.4,120.5
			c-14.2,57.8-31.6,94.4-51.7,109C338.9,742.3,324.1,746.5,309.8,746.5z M245.2,688c5.5,20.2,18.9,36.9,37.9,47.3
			c18.5,10.1,46,7.9,64.1-5.2c31.4-22.7,55.9-103.3,72.8-239.5c0.2-1.2,1.2-2.2,2.4-2.2c1.3,0,2.3,0.9,2.5,2.1
			c1.6,9.2,8.4,31.4,16.5,51.2c10.8,26.5,18.8,36.1,22.6,36.2h0.1c4.1,0,16.2-9.4,41-93.6c0.4-1.3,1.7-2,2.9-1.7
			c1.3,0.3,2.1,1.5,1.9,2.8s-0.4,2.8-0.6,4.2c-4,26.4-12.2,81.3,12.3,93.7c11.3,5.7,25.4,4.4,37.6-3.6c10.3-6.7,33.6-28.1,31.1-82.8
			c-6.2,8.7-17.8,17.8-27.4,16.6c-4.6-0.6-10.6-3.7-12.8-15.4c-7.2-37.3,2.2-114.9,14.9-152.1c0.4-1.2,1.6-1.9,2.8-1.7
			c6.2,1.2,19.4-0.1,28.1-6.5c5.2-3.8,8.1-8.9,8.8-15.2c1.1-10.2-2.3-19.3-9.4-25c-8.2-6.6-19.9-8-32.1-3.9
			c-55.2,18.7-77.9,122.7-94.4,198.6c-0.2,1.1-1.1,1.8-2.2,2c-1.1,0.1-2.1-0.5-2.5-1.5c-26.9-61-37.9-134.3-42.6-165.6
			c-0.8-5.3-1.5-10.1-2-12.9c-9.9,6.7-47.3,39.3-50.9,43.1c-0.7,0.7-1,2.1-0.8,3.7c0.2,2.2,1.3,4.3,2.7,5.2c2,1.4,5.1,1,8.4,0.7
			c4.5-0.5,9.6-1.1,12.9,3.3c1.5,2,2,4.4,2.3,6.9c4.2,31-3.1,64.2-10.2,96.3c-1.8,8-3.4,15.5-4.9,23c-4.6,23-15.4,67.5-36.9,107.8
			C316.5,652.1,284,680.2,245.2,688z M421.4,313.3L421.4,313.3z"/>
	</g>
	<g>
		<polygon class="st0" points="618.5,380.6 688.3,494.8 826,341.9 		"/>
	</g>
	<g>
		<path class="st0" d="M684.6,526.4c-0.1,0-0.2,0-0.2,0c-0.8-0.1-1.5-0.5-1.9-1.2L607.1,402c-0.4-0.7-0.5-1.6-0.2-2.3
			c0.3-0.8,1-1.3,1.8-1.4l224.1-41.8c1.1-0.2,2.1,0.3,2.6,1.2c0.5,0.9,0.4,2.1-0.3,2.9L686.5,525.5
			C686,526.1,685.3,526.4,684.6,526.4z M613.2,402.4L685,519.7l141.5-157.1L613.2,402.4z"/>
	</g>
	<g>
		<g>
			<path class="st0" d="M104.9,325.4c-0.5,0-0.8-0.2-1.2-0.5l-0.1-0.1c0,0,0,0-0.1,0c-0.6-0.2-1-0.6-1.4-1.1
				c-13.4-22.1-16.8-43-17.4-56.7c-0.6-14.1,1.9-27.2,5.6-29.8c1.5-1.1,3.4-0.8,4.6,0.7c1.3,1.7,2.2,5,3.5,10.4
				c3.3,13.4,8.9,35.8,27.4,49.6c1.5,1.2,2.7,3.6-0.6,8.4c-2.8,4.2-8.1,9.4-11,12.1C108.2,324,106.2,325.4,104.9,325.4z
				 M107.2,323.8L107.2,323.8L107.2,323.8z M92,243.9c-3,9.3-6.8,41.1,13.4,75.6c4.6-3.6,15.7-14.4,16.7-17.9
				c-19.4-14.9-25.4-39-28.7-52C93,247.5,92.5,245.5,92,243.9z M122.7,301.9C122.7,301.9,122.7,302,122.7,301.9L122.7,301.9
				C122.7,302,122.7,301.9,122.7,301.9z"/>
		</g>
		<g>
			<path class="st0" d="M307.4,392.9c-188.3,191-223.3-79.3-43.5-81.5c39.2-0.5,47.1,45-74.9,49.8c-1.5,1-16.8,17.7-22.1,25.4
				c228.2,27.3,210.8-176.1,32.8-115.5c-164,55.8-146.3,325.8,66,198.4c-5,43-32.3,88.2-67.9,113.4c1.1-8.9-27.2-48.2-59.8-18.5
				c-39,35.4,20.6,145.9,101.2,57.8c82-89.6,91.1-209.1,88.7-225.5C327.3,392.4,311.3,388.6,307.4,392.9z"/>
		</g>
		<g>
			<path class="st0" d="M109.1,302.7c-23.9-18-25.3-51.1-28.9-55.7c-3.5-4.5-14.1,35.8,10.5,76.5c0.2,0.1,0.8,0,0.6,0.2
				C90.4,325.4,113.2,305.8,109.1,302.7z"/>
		</g>
	</g>
	<g>
		<path class="st0" d="M556.8,294.6c-61.6,0.9-87.6,118.3-105.1,195.5C415.1,412.2,406.6,314,404,312c-3.1-0.7-61.1,46.4-64.1,49.5
			s-1.5,10,2.4,12.5c6.3,4,16.8-2.6,21.5,3.3c1.3,1.6,1.6,3.7,1.9,5.7c5.5,37.6,0,74.6-7.6,111.8c-9.9,47.7-44.6,171.4-138.9,187.5
			c5.7,22.4,20.5,42.8,41,53.4c20.6,10.5,50.4,7.6,69.4-5.6c47-32.5,68-174.2,76.5-240.7c3.5,18.9,28.5,87.4,43.3,88
			c7,0.3,20.2-13.3,45.1-94.1c-4,26.5-14.8,85.4,13.9,99c30.1,14.2,79.6-12.9,74.9-89.5c0,0-0.4-6.9-1.6-4.3
			c-6.7,13.9-34.6,34-40.1,7.2c-7.2-35.1-1.6-101.1,11.7-138.6c10.3,1.8,37.2-5.6,39.2-27.5C595.1,300.3,567,294.5,556.8,294.6z"/>
	</g>
	<g>
		<g>
			<path class="st0" d="M398.5,806.2c-0.6,0-1.2-0.2-1.7-0.7c-0.6-0.6-0.9-1.4-0.8-2.2l23.5-154c0.2-1,0.9-1.8,1.9-2.1l63.7-15.3
				c0.8-0.2,1.7,0,2.3,0.6c0.6,0.6,0.9,1.4,0.8,2.2l-4.6,29.8c-0.2,1-0.9,1.8-1.9,2.1l-39.2,9.4l-3.6,23.3l34.2-8.2
				c0.8-0.2,1.7,0,2.3,0.6c0.6,0.6,0.9,1.4,0.8,2.2l-4.5,29.8c-0.2,1-0.9,1.8-1.9,2.1l-36.2,8.7l-9.8,64.1c-0.2,1-0.9,1.8-1.9,2.1
				l-22.9,5.5C398.9,806.2,398.7,806.2,398.5,806.2z M424.2,651.8l-22.7,148.6l17.6-4.2l9.8-64.1c0.2-1,0.9-1.8,1.9-2.1l36.2-8.7
				l3.7-24.4l-34.2,8.2c-0.8,0.2-1.7,0-2.3-0.6c-0.6-0.6-0.9-1.4-0.8-2.2l4.4-28.6c0.2-1,0.9-1.8,1.9-2.1l39.2-9.4l3.8-24.4
				L424.2,651.8z"/>
		</g>
		<g>
			<path class="st0" d="M490.2,784.2c-0.6,0-1.2-0.2-1.7-0.7c-0.6-0.6-0.9-1.4-0.8-2.2l23.5-154c0.2-1,0.9-1.8,1.9-2.1l34.7-8.4
				c11.6-2.8,20.7-1.6,27.2,3.7c6.4,5.2,9.5,14.7,9.2,28.1c-0.2,12.3-2.7,23.3-7.4,32.7c-4.4,8.9-10.2,16.5-17.4,22.4l18.7,56.4
				c0.2,0.7,0.2,1.4-0.2,2c-0.3,0.6-0.9,1.1-1.6,1.2l-25.6,6.2c-1.3,0.3-2.6-0.4-3-1.7l-14.9-48.4l-8.9,2.2l-8.4,54.8
				c-0.2,1-0.9,1.8-1.9,2.1l-22.9,5.5C490.6,784.1,490.4,784.2,490.2,784.2z M515.9,629.7l-22.7,148.6l17.6-4.2l8.4-54.8
				c0.2-1,0.9-1.8,1.9-2.1l12.9-3.1c1.3-0.3,2.6,0.4,3,1.7l14.9,48.4l20.6-5l-18.4-55.4c-0.3-1,0-2.1,0.8-2.8
				c7.2-5.7,13-13,17.3-21.8s6.6-19.1,6.9-30.6l0,0c0.2-11.8-2.3-19.9-7.4-24.1c-5.1-4.2-12.8-5.1-22.8-2.7L515.9,629.7z
				 M525.9,694.5c-0.6,0-1.2-0.2-1.7-0.7c-0.6-0.6-0.9-1.4-0.8-2.2l6.3-41.4c0.2-1,0.9-1.8,1.9-2.1l11.3-2.7
				c5.3-1.3,9.4-0.6,12.3,1.9c2.9,2.5,4.2,7,4,13.8c-0.2,7.8-2.1,14.5-5.8,19.9c-3.8,5.5-9.1,9-15.7,10.7l-11.3,2.7
				C526.3,694.4,526.1,694.5,525.9,694.5z M534.5,652.6l-5.5,36l7.6-1.8c5.5-1.3,9.7-4.2,12.8-8.6c3.1-4.5,4.8-10.3,4.9-17.2l0,0
				c0.1-6.5-1.2-9-2.3-10c-1.6-1.4-4.2-1.6-7.8-0.8L534.5,652.6z"/>
		</g>
		<g>
			<path class="st0" d="M597.9,758.2c-0.6,0-1.2-0.2-1.7-0.7c-0.6-0.6-0.9-1.4-0.8-2.2l23.5-154c0.2-1,0.9-1.8,1.9-2.1l64.4-15.5
				c0.8-0.2,1.7,0,2.3,0.6s0.9,1.4,0.8,2.2l-4.4,29.3c-0.2,1-0.9,1.8-1.9,2.1l-39.8,9.6l-3.4,22.1l34.8-8.4c0.8-0.2,1.7,0,2.3,0.6
				s0.9,1.4,0.8,2.2l-4.5,29.3c-0.2,1-0.9,1.8-1.9,2.1l-36.8,8.9l-5.1,33.4l37.8-9.1c0.8-0.2,1.7,0,2.3,0.6s0.9,1.4,0.8,2.2
				l-4.4,29.2c-0.2,1-0.9,1.8-1.9,2.1l-64.3,15.5C598.3,758.2,598.1,758.2,597.9,758.2z M623.6,603.8L601,752.4l59.1-14.2l3.6-23.9
				l-37.8,9.1c-0.8,0.2-1.7,0-2.3-0.6s-0.9-1.4-0.8-2.2l5.9-38.8c0.2-1,0.9-1.8,1.9-2.1l36.8-8.9l3.7-23.9l-34.8,8.4
				c-0.8,0.2-1.7,0-2.3-0.6s-0.9-1.4-0.8-2.2l4.2-27.4c0.2-1,0.9-1.8,1.9-2.1l39.8-9.6l3.6-23.9L623.6,603.8z"/>
		</g>
		<g>
			<path class="st0" d="M693.6,735.2c-0.6,0-1.2-0.2-1.7-0.7c-0.6-0.6-0.9-1.4-0.8-2.2l23.5-154c0.2-1,0.9-1.8,1.9-2.1l25.6-6.2
				c1.3-0.3,2.7,0.5,3,1.8l17.6,68.9l11.7-76.9c0.2-1,0.9-1.8,1.9-2.1l21.2-5.1c0.8-0.2,1.7,0,2.3,0.6s0.9,1.4,0.8,2.2l-23.5,154
				c-0.2,1-0.9,1.8-1.9,2.1l-19.6,4.7c-1.3,0.3-2.7-0.5-3-1.8l-21-84.8L717.1,728c-0.2,1-0.9,1.8-1.9,2.1l-21.1,5.1
				C694,735.1,693.8,735.2,693.6,735.2z M719.3,580.7l-22.7,148.6l15.9-3.8l16-104.9c0.2-1.2,1.2-2.1,2.4-2.1
				c1.2-0.1,2.3,0.7,2.5,1.9l23.4,94.5l15.5-3.7l22.6-148.6l-15.9,3.8l-13.3,87.5c-0.2,1.2-1.2,2.1-2.3,2.1
				c-1.2,0.1-2.3-0.7-2.5-1.9l-20-78.5L719.3,580.7z M774.5,713.2L774.5,713.2L774.5,713.2z"/>
		</g>
		<g>
			<path class="st0" d="M826.9,704.1c-2,0-3.9-0.1-5.8-0.4c-6.2-0.8-11.6-2.4-16.1-4.8c-0.9-0.5-1.5-1.5-1.3-2.6l5.3-36.8
				c0.1-1,0.9-1.8,1.9-2.1l2.5-0.6c1-0.2,2,0.1,2.6,0.9c3.7,4.9,8.1,8.3,13,10.3c4.9,1.9,10.4,2.2,16.2,0.8c6-1.4,10.4-3.8,13.1-7.1
				c2.8-3.3,4.2-7.3,4.3-12.3c0-1.8-0.1-3.2-0.5-4.3c-0.3-0.9-1-1.8-2-2.6c-1.2-0.9-2.9-1.8-5-2.5c-2.4-0.8-5.5-1.7-9.3-2.6
				c-4.4-1-8.4-2.3-12-3.8c-3.7-1.6-6.9-3.9-9.5-6.8c-2.6-3-4.6-6.6-5.8-10.9c-1.2-4.2-1.8-9.4-1.7-15.6c0.3-15.4,4.7-28.9,13-40.1
				c8.3-11.2,19.8-18.7,33.9-22.1c6.8-1.6,13.3-2.3,19.3-1.8c6.1,0.4,11.4,1.8,15.7,4c0.9,0.5,1.5,1.5,1.3,2.6l-5,35.4
				c-0.1,1-0.9,1.8-1.9,2.1l-2.4,0.6c-1,0.2-2-0.1-2.6-0.9c-2.7-3.6-6.4-6.4-10.9-8.2s-9.5-2-15-0.7c-5.4,1.3-9.6,3.6-12.5,6.8
				s-4.3,6.9-4.4,11.4c0,2.1,0.1,3.7,0.5,4.8c0.3,0.9,0.9,1.8,2,2.6c0.8,0.6,2.2,1.5,5.2,2.5c2.6,0.9,5.7,1.7,9.3,2.5
				c10.4,2.2,17.9,6,22.4,11.4s6.7,13.7,6.5,24.5c-0.2,8.8-1.5,17-4,24.3s-6,13.7-10.3,19c-4.5,5.5-9.7,10.1-15.3,13.6
				c-5.6,3.4-12.1,6-19.1,7.7l0,0C836.8,703.4,831.7,704.1,826.9,704.1z M841.7,699.7L841.7,699.7L841.7,699.7z M809,695.3
				c3.7,1.7,8,2.8,12.8,3.5c5.6,0.7,12.1,0.2,19.3-1.5l0,0c6.6-1.6,12.5-4,17.7-7.1s9.9-7.3,14-12.4c3.9-4.8,7.1-10.7,9.4-17.5
				c2.3-6.8,3.6-14.5,3.8-22.8c0.2-9.6-1.6-16.8-5.3-21.2c-3.7-4.5-10.3-7.8-19.6-9.7c-3.8-0.8-7.1-1.7-9.8-2.6
				c-3-1-5.2-2.1-6.7-3.3c-1.8-1.4-3-3.1-3.6-5c-0.5-1.7-0.8-3.8-0.7-6.4c0.1-5.6,2-10.6,5.7-14.6c3.6-4,8.7-6.8,15-8.3
				c6.5-1.6,12.5-1.2,18,0.9c4.5,1.8,8.4,4.4,11.4,7.8l4.4-31c-3.4-1.5-7.4-2.4-12.1-2.7c-5.5-0.4-11.5,0.2-17.8,1.7
				c-13,3.1-23.4,9.9-31.1,20.2c-7.7,10.3-11.7,22.8-12,37.2c-0.1,5.7,0.4,10.4,1.5,14.1c1.1,3.6,2.7,6.6,4.8,9
				c2.1,2.3,4.7,4.2,7.8,5.6c3.2,1.4,6.9,2.6,11.1,3.5c4,0.9,7.3,1.8,9.8,2.7c2.8,0.9,4.9,2,6.5,3.4c1.8,1.4,3,3.1,3.6,4.9
				c0.6,1.7,0.8,3.6,0.8,6c-0.1,6.1-2,11.3-5.4,15.4c-3.5,4.1-8.8,7-15.8,8.7c-6.8,1.6-13.3,1.3-19.2-1c-5.2-2-9.7-5.3-13.6-9.9
				L809,695.3z"/>
		</g>
	</g>
	<g>
		<g>
			<path class="st0" d="M473.6,628.3l-4.6,29.8l-40.8,9.8l-4.4,28.6l37.8-9.1l-4.5,29.8l-37.8,9.1l-10,65.8l-22.9,5.5l23.5-154
				L473.6,628.3z"/>
		</g>
		<g>
			<path class="st0" d="M569.5,642.6c-0.2,11.9-2.6,22.5-7.1,31.7s-10.5,16.7-18,22.7l19.3,58l-25.6,6.2l-15.6-50.6l-12.9,3.1
				l-8.6,56.5l-22.9,5.5l23.5-154l34.7-8.4c10.9-2.6,19.2-1.5,25,3.2S569.7,629.9,569.5,642.6z M544.6,655c0.1-6-0.9-10-3.2-11.9
				c-2.2-1.9-5.6-2.4-10-1.3l-11.3,2.7l-6.3,41.4l11.3-2.7c6.1-1.5,10.8-4.7,14.2-9.6C542.7,668.6,544.5,662.4,544.6,655z"/>
		</g>
		<g>
			<path class="st0" d="M673.6,580.1l-4.4,29.3l-41.4,10l-4.2,27.4l38.4-9.3l-4.5,29.3l-38.4,9.3l-5.9,38.8l41.4-10l-4.4,29.2
				l-64.3,15.5l23.5-154L673.6,580.1z"/>
		</g>
		<g>
			<path class="st0" d="M762.4,707.1l-19.6,4.7l-24-96.9l-16.2,106.6l-21.1,5.1l23.5-154l25.6-6.2l20.6,80.9l13.5-89.1l21.2-5.1
				L762.4,707.1z"/>
		</g>
		<g>
			<path class="st0" d="M829.6,693.6c-7.6,1.8-14.3,2.4-20.2,1.6c-5.9-0.8-11-2.3-15.3-4.5l5.3-36.8l2.5-0.6c4,5.3,8.7,9,14.1,11.1
				c5.5,2.1,11.4,2.4,17.7,0.9c6.5-1.6,11.3-4.2,14.5-7.9c3.1-3.7,4.7-8.3,4.8-13.9c0-2.1-0.2-3.8-0.6-5.2c-0.5-1.4-1.4-2.6-2.8-3.8
				c-1.4-1.1-3.3-2.1-5.8-2.9c-2.5-0.8-5.6-1.7-9.5-2.6c-4.3-1-8.1-2.2-11.5-3.7s-6.3-3.6-8.6-6.2c-2.4-2.7-4.1-6-5.3-10
				s-1.7-8.9-1.6-14.9c0.3-14.9,4.5-27.8,12.5-38.6s18.9-17.8,32.5-21.1c6.6-1.6,12.7-2.2,18.5-1.8s10.7,1.6,14.7,3.7l-5,35.4
				l-2.4,0.6c-3-4-7-7-12-9s-10.5-2.3-16.5-0.8c-5.9,1.4-10.5,3.9-13.7,7.6c-3.3,3.6-5,8-5.1,13c0,2.3,0.2,4.2,0.6,5.6
				c0.4,1.4,1.4,2.7,2.8,3.8c1.2,1,3.2,2,5.9,2.9s5.9,1.7,9.6,2.5c9.8,2.1,16.8,5.6,21,10.6c4.1,5,6.1,12.6,5.9,22.9
				c-0.2,8.6-1.5,16.5-3.9,23.6s-5.7,13.2-9.9,18.2c-4.3,5.4-9.2,9.7-14.7,13S836.4,691.9,829.6,693.6z"/>
		</g>
	</g>
	<g>
		<g>
			<polygon class="st0" points="597.7,846.4 597.7,846.4 903,767 905.6,777.7 			"/>
		</g>
		<g>
			<polygon class="st0" points="462.8,851 462.8,851 896.8,741 899.4,751.6 			"/>
		</g>
		<g>
			<polygon class="st0" points="376.3,844.2 376.3,844.2 890.6,714.9 893.1,725.6 			"/>
		</g>
	</g>
</g>
</svg>
