<?xml version="1.0" encoding="UTF-8" standalone="no"?>
<!DOCTYPE svg PUBLIC "-//W3C//DTD SVG 1.1//EN" "http://www.w3.org/Graphics/SVG/1.1/DTD/svg11.dtd">
<svg width="100%" height="100%" viewBox="0 0 2025 2774" version="1.1" xmlns="http://www.w3.org/2000/svg" xmlns:xlink="http://www.w3.org/1999/xlink" xml:space="preserve" xmlns:serif="http://www.serif.com/" style="fill-rule:evenodd;clip-rule:evenodd;stroke-linejoin:round;stroke-miterlimit:2;">
    <g transform="matrix(1,0,0,1,0,-2285.1)">
        <g id="no-outline" transform="matrix(5.8527,0,0,5.8527,-2813.82,19.8882)">
            <g transform="matrix(1.19397,0,0,1.19397,-22.9625,-419.514)">
                <path d="M428.192,1044.71L422.198,1041.22L422.219,1006.06L437.375,979.846L659.519,853.73L711.604,883.801L711.604,897.587L674.206,958.157L665.908,962.948L647.603,952.38L628.51,984.54L618.5,990.319L594.302,976.348L581.937,1011.43C581.937,1011.43 571.171,1017.64 571.171,1017.64L557.557,1009.78L557.571,1025.5L554.182,1027.45L538.95,1018.66L537.118,1021.83L528.997,1041.99L523.718,1045.04L521.886,1043.98L521.886,1046.1L476.19,1072.48L428.192,1044.77L428.192,1044.71Z" style="fill:rgb(28,7,231);"/>
            </g>
            <g transform="matrix(1,0,0,1,0,21)">
                <path d="M545.596,798L563.783,766.5L600.156,745.5L600.156,808.5L545.596,840L545.596,798Z" style="fill:rgb(60,254,254);"/>
            </g>
            <g transform="matrix(1,0,0,1,-16,30.2376)">
                <path d="M618.342,798L618.342,756L636.529,724.5L672.902,703.5L672.902,766.5L654.715,777L654.715,735L636.529,766.5L636.529,787.5L618.342,798Z" style="fill:rgb(246,9,157);"/>
            </g>
            <g transform="matrix(1,0,0,1,-32,39.4752)">
                <path d="M691.088,756L691.088,693L727.461,672L745.648,682.5L745.648,724.5L691.088,756Z" style="fill:rgb(76,250,133);"/>
            </g>
            <g transform="matrix(1,0,0,1,-48.3246,48.9002)">
                <path d="M763.834,714L763.834,672L782.021,640.5L818.394,619.5L818.394,682.5L763.834,714Z" style="fill:rgb(252,240,55);"/>
            </g>
            <g transform="matrix(1,0,0,1,-64.4674,58.2203)">
                <path d="M836.581,630L854.767,598.5L891.14,577.5L891.14,619.5L872.954,651L836.581,672L836.581,630Z" style="fill:rgb(246,70,82);"/>
            </g>
            <g transform="matrix(1.19397,0,0,1.19397,-22.9625,-419.514)">
                <path d="M521.886,1009.96L490.585,1028.03L490.585,1047.55L506.654,1038.27L506.654,1036.34L492.26,1044.65C492.26,1044.65 492.26,1028.99 492.26,1028.99C492.26,1028.99 521.886,1011.89 521.886,1011.89L521.886,1009.96ZM585.639,974.115L585.639,1009.29L587.314,1008.45L587.314,973.147L585.639,974.115ZM600.871,965.32L600.871,1000.37L602.546,999.53L602.546,964.353L600.871,965.32ZM548.659,759.121L530.582,748.704L421.899,811.453L421.899,936.877L476.19,968.093L480.14,965.952L566.78,915.93L602.951,936.728L620.283,926.377L619.978,904.744L638.727,894.441L638.376,874.594L695.452,841.641L711.664,712.435L711.664,706.821L657.343,675.518L548.659,738.267L548.659,759.121ZM664.196,945.381L633.313,963.211L633.313,965.145L664.196,947.315L664.196,945.381ZM664.196,927.793L633.313,945.623L633.313,947.557L664.196,929.727L664.196,927.793ZM665.871,946.348L695.953,928.98L695.953,927.046L665.871,944.414L665.871,946.348ZM681.558,919.703L711.604,902.356L711.604,900.422L681.558,917.768L681.558,919.703Z" style="fill:rgb(28,7,231);"/>
            </g>
            <g transform="matrix(1.19397,0,0,1.19397,-22.9625,-419.514)">
                <path d="M584.903,780.006L584.903,905.467L476.25,968.197L476.25,842.736L584.903,780.006ZM603.011,936.832L603.011,769.551L711.664,706.821L711.664,832.281L639.229,874.102L639.229,895.012L621.12,905.467L621.12,926.377L603.011,936.832ZM512.468,863.647L548.685,842.736L548.685,884.557L512.468,905.467L512.468,863.647ZM639.229,832.281L639.229,790.461L675.446,769.551L675.446,811.371L639.229,832.281Z" style="fill:white;"/>
            </g>
        </g>
    </g>
</svg>
